<svg width="35" height="46" viewBox="0 0 35 46" fill="none" xmlns="http://www.w3.org/2000/svg">
<path d="M6.89659 19.1985C6.17209 19.1985 5.57959 19.791 5.57959 20.5155C5.57959 21.24 6.17209 21.831 6.89659 21.831H27.1736C27.8981 21.831 28.4906 21.24 28.4906 20.5155C28.4906 19.791 27.8981 19.1985 27.1736 19.1985H6.89659Z" fill="#448FC5"/>
<path d="M1.56379 45.8054C0.947293 45.8054 0.425293 45.2924 0.425293 44.6864V1.94242C0.425293 1.31542 0.935293 0.80542 1.56379 0.80542H23.6198C23.9198 0.80542 24.2123 0.93142 24.4403 1.15942L34.1138 10.8509C34.3388 11.0459 34.4678 11.3369 34.4678 11.6519V44.6849C34.4678 45.2909 33.9443 45.8039 33.3293 45.8039L1.56379 45.8054ZM2.70229 43.5494H32.2103V12.7889H23.6198C22.9943 12.7889 22.4828 12.2789 22.4828 11.6534V3.06142H2.70229V43.5494ZM24.7598 10.5329H30.6098L24.7598 4.66042V10.5329Z" fill="#448FC5"/>
<path d="M6.89659 25.0514C6.17209 25.0514 5.57959 25.6439 5.57959 26.3684C5.57959 27.0929 6.17209 27.6854 6.89659 27.6854H27.1736C27.8981 27.6854 28.4906 27.0929 28.4906 26.3684C28.4906 25.6439 27.8981 25.0514 27.1736 25.0514H6.89659Z" fill="#448FC5"/>
<path d="M6.89659 30.903C6.17209 30.903 5.57959 31.4955 5.57959 32.22C5.57959 32.946 6.17209 33.5355 6.89659 33.5355H27.1736C27.8981 33.5355 28.4906 32.946 28.4906 32.22C28.4906 31.4955 27.8981 30.903 27.1736 30.903H6.89659Z" fill="#448FC5"/>
</svg>
