<svg width="22" height="22" viewBox="0 0 22 22" fill="none" xmlns="http://www.w3.org/2000/svg">
<path d="M13.1502 14.1516C14.2018 13.9331 15.156 13.5541 15.8978 12.9978C17.1646 12.0477 17.812 10.5803 17.812 9.1306C17.812 8.11355 17.4264 7.16408 16.7589 6.35987C16.3869 5.91174 17.4749 2.5681 16.5083 3.01842C15.5416 3.46873 14.1242 4.46549 13.3813 4.24551C12.5859 4.00999 11.7191 3.8806 10.812 3.8806C10.0242 3.8806 9.26672 3.97821 8.56002 4.15819C7.53277 4.41981 6.55037 3.4431 5.56201 3.01842C4.57364 2.59373 5.11296 6.05204 4.8194 6.41569C4.18003 7.20788 3.81201 8.137 3.81201 9.1306C3.81201 10.5803 4.59551 12.0477 5.86227 12.9978C6.70612 13.6306 7.76439 14.034 8.94831 14.2327" stroke="#BFBFBF" stroke-width="1.5" stroke-linecap="round"/>
<path d="M8.94823 14.2327C8.44139 14.7905 8.18799 15.3202 8.18799 15.8219C8.18799 16.3235 8.18799 17.5946 8.18799 19.6352" stroke="#BFBFBF" stroke-width="1.5" stroke-linecap="round"/>
<path d="M13.1504 14.1516C13.6306 14.782 13.8708 15.3479 13.8708 15.8495C13.8708 16.3512 13.8708 17.6131 13.8708 19.6353" stroke="#BFBFBF" stroke-width="1.5" stroke-linecap="round"/>
<path d="M2.93701 14.4749C3.33027 14.5229 3.62194 14.7038 3.81201 15.0173C4.09713 15.4876 5.15697 17.2322 6.36049 17.2322C7.16287 17.2322 7.77204 17.2322 8.18806 17.2322" stroke="#BFBFBF" stroke-width="1.5" stroke-linecap="round"/>
</svg>
