<svg width="18" height="19" viewBox="0 0 18 19" fill="none" xmlns="http://www.w3.org/2000/svg">
<path d="M2.4843 4.19296C3.41623 4.19296 4.17172 3.43747 4.17172 2.50554C4.17172 1.5736 3.41623 0.818115 2.4843 0.818115C1.55236 0.818115 0.796875 1.5736 0.796875 2.50554C0.796875 3.43747 1.55236 4.19296 2.4843 4.19296Z" stroke="#BFBFBF" stroke-width="1.5"/>
<path d="M4.17172 6.72412H0.796875V17.2705H4.17172V6.72412Z" stroke="#BFBFBF" stroke-width="1.5" stroke-linejoin="round"/>
<path d="M7.54639 10.7317V17.2705H10.4994V11.3645C10.4994 10.3099 11.1322 9.46618 12.1868 9.46618C13.2414 9.46618 13.8742 10.5208 13.8742 11.3645V17.2705H16.8272V10.7317C16.8272 9.46618 15.3507 6.72412 12.1868 6.72412C9.02288 6.72412 7.54639 9.46618 7.54639 10.7317Z" stroke="#BFBFBF" stroke-width="1.5" stroke-linejoin="round"/>
</svg>
