<svg width="50" height="57" viewBox="0 0 50 57" fill="none" xmlns="http://www.w3.org/2000/svg">
<path d="M24.046 53.9125L3.8695 42.2633C3.06883 41.8011 2.57227 40.9239 2.57227 39.9721V16.8459C2.57227 15.8941 3.06883 15.0169 3.86951 14.5547L24.046 2.90552C24.8077 2.46574 25.7338 2.46574 26.4956 2.90552L46.6721 14.5547C47.4727 15.0169 47.9693 15.8941 47.9693 16.8459V39.9721C47.9693 40.9239 47.4727 41.8011 46.6721 42.2633L26.4956 53.9125C25.7338 54.3523 24.8077 54.3523 24.046 53.9125Z" stroke="#448FC5" stroke-width="3"/>
<path d="M18 39.6819V16H25.5452C27.5437 16 29.0146 16.2124 29.9577 16.6373C31.1254 17.1517 32.0461 17.9455 32.7198 19.0189C33.3935 20.0923 33.7303 21.367 33.7303 22.8429C33.7303 24.3636 33.3373 25.7277 32.5514 26.9352C31.7879 28.1205 30.7661 28.9255 29.4862 29.3504V29.4175C29.6658 29.6411 29.8904 29.9989 30.1598 30.4909L35.2124 39.6819H31.4398L26.4209 30.2561H21.3347V39.6819H18ZM21.3347 27.3713H26.1178C27.4202 27.3713 28.4532 26.98 29.2167 26.1973C29.9802 25.3922 30.3619 24.33 30.3619 23.0106C30.3619 21.1545 29.6209 19.9134 28.1388 19.2873C27.5325 19.0189 26.5781 18.8848 25.2757 18.8848H21.3347V27.3713Z" fill="#448FC5"/>
</svg>
