<svg width="26" height="16" viewBox="0 0 26 16" fill="none" xmlns="http://www.w3.org/2000/svg">
<path d="M14.3253 7.93355C14.3253 11.6135 11.3422 14.5968 7.66251 14.5968C3.98274 14.5968 1 11.6144 1 7.93355C1 4.25271 3.98297 1.27051 7.66251 1.27051C11.342 1.27051 14.3253 4.25361 14.3253 7.93355ZM21.6343 7.93355C21.6343 11.3978 20.1428 14.2058 18.303 14.2058C16.4633 14.2058 14.9716 11.3969 14.9716 7.93355C14.9716 4.47023 16.4633 1.66129 18.303 1.66129C20.1428 1.66129 21.6343 4.47023 21.6343 7.93355ZM24.6239 7.93355C24.6239 11.0373 24.0992 13.5533 23.4522 13.5533C22.8052 13.5533 22.2805 11.0365 22.2805 7.93355C22.2805 4.83067 22.8052 2.31386 23.4524 2.31386C24.0997 2.31386 24.6239 4.83 24.6239 7.93355Z" stroke="#BFBFBF" stroke-width="1.5" stroke-linejoin="round"/>
</svg>
